# This file uses centimeters as units for non-parametric coordinates.

mtllib bush.mtl
g default
v 51.677685 -0.848831 102.587441
v 50.195011 115.120010 -52.443405
v -105.090446 56.432640 61.385170
v -96.034309 58.718826 233.047081
v 64.848076 118.819130 225.311364
v 155.222778 153.676971 48.868554
v 62.449066 306.460693 -25.533828
v -98.433357 246.360367 -17.798114
v -188.808044 211.502533 158.644692
v -83.780220 250.059494 259.956597
v 71.505196 308.746826 146.128014
v -85.262932 366.028320 104.925774
v -151.251694 232.897629 -95.712177
v -47.952423 310.445892 -16.798561
v -190.708511 358.373383 -16.798568
v -278.936615 232.897614 -16.798568
v -190.708511 107.421875 -16.798561
v -47.952431 155.349350 -16.798561
v -23.566767 232.897629 110.886361
v -111.794891 358.373383 110.886361
v -254.550964 310.445892 110.886361
v -254.550964 155.349335 110.886361
v -111.794861 107.421875 110.886361
v -151.251694 232.897629 189.799981
v 0.000000 148.000000 -284.336204
v 178.647995 237.051849 -147.861282
v -68.237473 292.088928 -147.861297
v -220.821091 147.999985 -147.861297
v -68.237480 3.911087 -147.861282
v 178.647980 58.948143 -147.861282
v 220.821091 148.000000 72.959794
v 68.237457 292.088928 72.959778
v -178.648010 237.051849 72.959794
v -178.647980 58.948135 72.959778
v 68.237488 3.911087 72.959778
v 0.000000 148.000000 209.434700
v -78.285408 260.531281 -129.500404
v 67.876579 234.438202 -100.044349
v 17.328466 376.273285 -98.033866
v -124.303291 371.367188 -39.341896
v -161.288391 226.500000 -5.078788
v -42.514717 141.873230 -42.594963
v 75.206680 184.280487 42.582100
v 112.191795 329.147705 8.318978
v -6.581902 413.774475 45.835183
v -116.973183 321.209473 103.284554
v -66.425064 179.374390 101.274056
v 29.188797 295.116394 132.740609
v -253.551498 116.807030 -118.609016
v -75.906052 192.274872 -103.369896
v -241.092773 238.916595 1.761555
v -343.183777 116.807022 66.736367
v -241.092758 -5.302521 1.761567
v -75.906067 41.339172 -103.369880
v 46.343643 116.807030 26.418984
v -55.747375 238.916595 91.393792
v -220.934067 192.274872 196.525246
v -220.934052 41.339165 196.525231
v -55.747353 -5.302521 91.393776
v -43.288620 116.807030 211.764367
v -149.935364 98.801437 -153.608833
v -227.230408 228.710541 -161.414795
v -278.256378 118.818909 -71.991512
v -154.785294 50.863373 -11.449695
v -27.450050 118.756187 -63.456068
v -72.223579 228.671783 -156.139595
v -152.516052 328.953583 -76.086376
v -279.851318 261.060760 -24.079994
v -235.077774 151.145157 68.603531
v -80.070930 151.106415 73.878716
v -29.044991 260.998047 -15.544569
v -157.365997 281.015503 66.072762
vt 0.266131 0.569441
vt 0.390246 0.671809
vt 0.337798 0.879929
vt 0.300439 0.522894
vt 0.189269 0.632092
vt 0.271805 0.778273
vt 0.356296 0.885751
vt 0.338777 0.985906
vt 0.262843 0.992565
vt 0.293475 0.933999
vt 0.195640 0.952978
vt 0.256345 0.925419
vt 0.216278 0.853249
vt 0.292286 0.857706
vt 0.283022 0.888884
vt 0.122868 0.101373
vt 0.300796 0.219241
vt 0.226248 0.400913
vt 0.161549 0.007435
vt 0.009911 0.159796
vt 0.109218 0.286282
vt 0.245427 0.441587
vt 0.224726 0.571415
vt 0.108297 0.578647
vt 0.162672 0.504091
vt 0.007435 0.513881
vt 0.091068 0.485030
vt 0.043001 0.387388
vt 0.152662 0.391507
vt 0.138943 0.442192
vt 0.876832 0.564216
vt 0.992565 0.664407
vt 0.943087 0.876147
vt 0.909980 0.526898
vt 0.805156 0.627631
vt 0.884337 0.777686
vt 0.961882 0.876898
vt 0.945037 0.972430
vt 0.874589 0.978971
vt 0.902101 0.922971
vt 0.811972 0.942776
vt 0.869263 0.915625
vt 0.830443 0.847377
vt 0.901719 0.852031
vt 0.893171 0.880204
vt 0.427880 0.101373
vt 0.605808 0.219241
vt 0.531260 0.400914
vt 0.466561 0.007436
vt 0.314923 0.159797
vt 0.414231 0.286283
vt 0.550439 0.441588
vt 0.529738 0.571415
vt 0.413309 0.578648
vt 0.467684 0.504092
vt 0.312447 0.513881
vt 0.396080 0.485030
vt 0.348013 0.387388
vt 0.457675 0.391508
vt 0.443955 0.442193
vt 0.571142 0.569441
vt 0.695257 0.671809
vt 0.642809 0.879929
vt 0.605450 0.522894
vt 0.494280 0.632092
vt 0.576816 0.778273
vt 0.661307 0.885752
vt 0.643788 0.985906
vt 0.567854 0.992565
vt 0.598486 0.933999
vt 0.500651 0.952978
vt 0.561356 0.925419
vt 0.521289 0.853249
vt 0.597297 0.857705
vt 0.588033 0.888883
vt 0.734845 0.101373
vt 0.912774 0.219241
vt 0.838226 0.400913
vt 0.773527 0.007435
vt 0.621888 0.159796
vt 0.721196 0.286282
vt 0.857405 0.441587
vt 0.836704 0.571415
vt 0.720274 0.578647
vt 0.774649 0.504091
vt 0.619412 0.513881
vt 0.703046 0.485030
vt 0.654979 0.387388
vt 0.764640 0.391507
vt 0.750920 0.442192
vn -0.134374 -0.794107 -0.592737
vn -0.134374 -0.794107 -0.592737
vn -0.134374 -0.794108 -0.592737
vn -0.350197 -0.936165 0.030943
vn -0.350197 -0.936165 0.030943
vn -0.350197 -0.936165 0.030943
vn 0.292846 -0.700096 0.651235
vn 0.292846 -0.700096 0.651235
vn 0.292846 -0.700096 0.651235
vn 0.831765 -0.439426 0.339221
vn 0.831765 -0.439426 0.339221
vn 0.831765 -0.439426 0.339221
vn 0.658698 -0.599458 -0.454717
vn 0.658698 -0.599458 -0.454717
vn 0.658698 -0.599458 -0.454717
vn -0.476601 -0.324010 -0.817233
vn -0.476601 -0.324010 -0.817233
vn -0.476601 -0.324010 -0.817233
vn -0.864679 -0.499598 0.052270
vn -0.864679 -0.499598 0.052270
vn -0.864679 -0.499598 0.052270
vn 0.101461 -0.144916 0.984228
vn 0.101461 -0.144916 0.984228
vn 0.101461 -0.144916 0.984228
vn 0.863536 0.167971 0.475491
vn 0.863536 0.167971 0.475491
vn 0.863536 0.167971 0.475491
vn 0.681773 0.058888 -0.729190
vn 0.681773 0.058888 -0.729190
vn 0.681773 0.058888 -0.729190
vn -0.101461 0.144917 -0.984228
vn -0.101461 0.144917 -0.984228
vn -0.101461 0.144917 -0.984228
vn -0.863536 -0.167971 -0.475491
vn -0.863536 -0.167971 -0.475491
vn -0.863536 -0.167971 -0.475491
vn -0.681773 -0.058888 0.729190
vn -0.681773 -0.058888 0.729190
vn -0.681773 -0.058888 0.729190
vn 0.476600 0.324010 0.817233
vn 0.476601 0.324010 0.817233
vn 0.476600 0.324010 0.817233
vn 0.864679 0.499598 -0.052270
vn 0.864679 0.499598 -0.052270
vn 0.864679 0.499598 -0.052270
vn -0.292846 0.700096 -0.651236
vn -0.292846 0.700096 -0.651235
vn -0.292846 0.700096 -0.651235
vn -0.831765 0.439426 -0.339221
vn -0.831766 0.439426 -0.339221
vn -0.831766 0.439426 -0.339221
vn -0.658697 0.599458 0.454717
vn -0.658697 0.599458 0.454717
vn -0.658697 0.599458 0.454717
vn 0.134374 0.794108 0.592737
vn 0.134374 0.794108 0.592737
vn 0.134374 0.794108 0.592737
vn 0.350198 0.936165 -0.030942
vn 0.350197 0.936165 -0.030942
vn 0.350198 0.936165 -0.030942
vn 0.189606 0.564756 -0.803182
vn 0.189606 0.564756 -0.803182
vn 0.189606 0.564756 -0.803182
vn -0.493117 0.346734 -0.797879
vn -0.493117 0.346734 -0.797879
vn -0.493117 0.346734 -0.797879
vn -0.493117 -0.346734 -0.797880
vn -0.493117 -0.346734 -0.797879
vn -0.493117 -0.346734 -0.797879
vn 0.189605 -0.564756 -0.803181
vn 0.189605 -0.564756 -0.803181
vn 0.189605 -0.564756 -0.803181
vn 0.607062 -0.000000 -0.794655
vn 0.607062 -0.000000 -0.794654
vn 0.607062 -0.000000 -0.794654
vn 0.312288 0.930175 -0.193004
vn 0.312288 0.930175 -0.193004
vn 0.312288 0.930175 -0.193004
vn -0.803182 0.564756 -0.189605
vn -0.803182 0.564756 -0.189605
vn -0.803182 0.564756 -0.189605
vn -0.803181 -0.564756 -0.189605
vn -0.803181 -0.564756 -0.189605
vn -0.803182 -0.564756 -0.189605
vn 0.312288 -0.930175 -0.193004
vn 0.312288 -0.930175 -0.193004
vn 0.312288 -0.930175 -0.193004
vn 0.982247 -0.000000 -0.187593
vn 0.982247 -0.000000 -0.187593
vn 0.982247 -0.000000 -0.187593
vn 0.803181 0.564756 0.189605
vn 0.803181 0.564756 0.189606
vn 0.803181 0.564756 0.189605
vn -0.312288 0.930175 0.193004
vn -0.312288 0.930175 0.193004
vn -0.312288 0.930175 0.193004
vn -0.982247 0.000000 0.187592
vn -0.982247 0.000000 0.187592
vn -0.982247 0.000000 0.187592
vn -0.312287 -0.930175 0.193004
vn -0.312287 -0.930175 0.193004
vn -0.312287 -0.930175 0.193004
vn 0.803182 -0.564756 0.189605
vn 0.803182 -0.564756 0.189605
vn 0.803181 -0.564756 0.189605
vn 0.493117 0.346734 0.797879
vn 0.493117 0.346734 0.797879
vn 0.493117 0.346734 0.797879
vn -0.189606 0.564756 0.803181
vn -0.189606 0.564756 0.803181
vn -0.189606 0.564756 0.803181
vn -0.607062 0.000000 0.794655
vn -0.607062 0.000000 0.794655
vn -0.607062 0.000000 0.794655
vn -0.189606 -0.564756 0.803181
vn -0.189606 -0.564756 0.803181
vn -0.189606 -0.564756 0.803181
vn 0.493117 -0.346734 0.797879
vn 0.493117 -0.346734 0.797879
vn 0.493117 -0.346734 0.797879
vn 0.159991 0.717690 -0.677734
vn 0.159991 0.717690 -0.677734
vn 0.159991 0.717690 -0.677734
vn -0.459343 0.486424 -0.743233
vn -0.459343 0.486424 -0.743233
vn -0.459343 0.486424 -0.743233
vn -0.459343 -0.486424 -0.743233
vn -0.459343 -0.486424 -0.743233
vn -0.459343 -0.486424 -0.743233
vn 0.159991 -0.717690 -0.677734
vn 0.159991 -0.717690 -0.677734
vn 0.159991 -0.717690 -0.677734
vn 0.607062 -0.000000 -0.794654
vn 0.607062 -0.000000 -0.794654
vn 0.607062 -0.000000 -0.794654
vn 0.215644 0.967334 -0.133275
vn 0.215644 0.967334 -0.133275
vn 0.215644 0.967334 -0.133275
vn -0.677734 0.717690 -0.159991
vn -0.677735 0.717690 -0.159991
vn -0.677734 0.717690 -0.159991
vn -0.677734 -0.717690 -0.159991
vn -0.677734 -0.717690 -0.159991
vn -0.677734 -0.717690 -0.159991
vn 0.215643 -0.967334 -0.133275
vn 0.215643 -0.967334 -0.133275
vn 0.215643 -0.967334 -0.133275
vn 0.982247 -0.000000 -0.187593
vn 0.982247 -0.000000 -0.187593
vn 0.982247 -0.000000 -0.187593
vn 0.677734 0.717690 0.159991
vn 0.677734 0.717690 0.159991
vn 0.677734 0.717690 0.159991
vn -0.215644 0.967334 0.133275
vn -0.215644 0.967334 0.133275
vn -0.215644 0.967334 0.133275
vn -0.982247 -0.000000 0.187593
vn -0.982247 -0.000000 0.187593
vn -0.982247 -0.000000 0.187593
vn -0.215643 -0.967334 0.133275
vn -0.215643 -0.967334 0.133275
vn -0.215643 -0.967334 0.133275
vn 0.677734 -0.717690 0.159991
vn 0.677734 -0.717690 0.159991
vn 0.677735 -0.717690 0.159991
vn 0.459343 0.486424 0.743233
vn 0.459343 0.486424 0.743233
vn 0.459343 0.486424 0.743233
vn -0.159991 0.717690 0.677734
vn -0.159991 0.717690 0.677734
vn -0.159991 0.717690 0.677734
vn -0.607062 -0.000000 0.794655
vn -0.607062 -0.000000 0.794655
vn -0.607062 -0.000000 0.794655
vn -0.159991 -0.717690 0.677734
vn -0.159991 -0.717690 0.677734
vn -0.159991 -0.717690 0.677734
vn 0.459343 -0.486424 0.743233
vn 0.459343 -0.486424 0.743233
vn 0.459343 -0.486424 0.743233
vn 0.212076 0.089375 -0.973158
vn 0.212076 0.089375 -0.973158
vn 0.212076 0.089375 -0.973158
vn -0.345992 0.501417 -0.793014
vn -0.345992 0.501417 -0.793014
vn -0.345992 0.501417 -0.793013
vn -0.839574 0.087540 -0.536145
vn -0.839574 0.087540 -0.536145
vn -0.839574 0.087540 -0.536145
vn -0.591864 -0.584741 -0.554775
vn -0.591864 -0.584742 -0.554775
vn -0.591864 -0.584742 -0.554775
vn 0.060887 -0.577767 -0.813927
vn 0.060887 -0.577767 -0.813927
vn 0.060887 -0.577767 -0.813927
vn 0.774609 0.284070 -0.565054
vn 0.774609 0.284070 -0.565053
vn 0.774609 0.284070 -0.565054
vn -0.145726 0.951157 -0.272149
vn -0.145726 0.951157 -0.272149
vn -0.145726 0.951157 -0.272149
vn -0.949666 0.277039 0.146234
vn -0.949666 0.277039 0.146234
vn -0.949666 0.277039 0.146234
vn -0.549511 -0.826227 0.124040
vn -0.549511 -0.826227 0.124040
vn -0.549511 -0.826227 0.124040
vn 0.511903 -0.801820 -0.308286
vn 0.511903 -0.801820 -0.308286
vn 0.511903 -0.801820 -0.308286
vn 0.949666 -0.277039 -0.146234
vn 0.949666 -0.277039 -0.146234
vn 0.949666 -0.277039 -0.146234
vn 0.549511 0.826227 -0.124040
vn 0.549511 0.826227 -0.124040
vn 0.549511 0.826227 -0.124040
vn -0.511903 0.801820 0.308286
vn -0.511903 0.801820 0.308286
vn -0.511903 0.801820 0.308286
vn -0.774609 -0.284070 0.565053
vn -0.774609 -0.284070 0.565053
vn -0.774609 -0.284070 0.565053
vn 0.145726 -0.951157 0.272149
vn 0.145726 -0.951157 0.272149
vn 0.145726 -0.951157 0.272149
vn 0.839574 -0.087540 0.536145
vn 0.839574 -0.087540 0.536145
vn 0.839574 -0.087540 0.536145
vn 0.591864 0.584741 0.554775
vn 0.591864 0.584741 0.554775
vn 0.591864 0.584741 0.554775
vn -0.060887 0.577767 0.813927
vn -0.060887 0.577767 0.813927
vn -0.060887 0.577767 0.813927
vn -0.212076 -0.089375 0.973158
vn -0.212076 -0.089375 0.973158
vn -0.212076 -0.089375 0.973158
vn 0.345992 -0.501417 0.793013
vn 0.345992 -0.501417 0.793013
vn 0.345992 -0.501417 0.793013
vn -0.236608 0.694221 -0.679760
vn -0.236608 0.694221 -0.679760
vn -0.236608 0.694221 -0.679760
vn -0.798391 0.462059 -0.386099
vn -0.798391 0.462059 -0.386099
vn -0.798391 0.462059 -0.386099
vn -0.798391 -0.462060 -0.386099
vn -0.798391 -0.462060 -0.386099
vn -0.798391 -0.462060 -0.386099
vn -0.236608 -0.694221 -0.679760
vn -0.236608 -0.694221 -0.679760
vn -0.236608 -0.694221 -0.679760
vn 0.085470 -0.000000 -0.996341
vn 0.085470 -0.000000 -0.996341
vn 0.085470 -0.000000 -0.996341
vn 0.117397 0.962957 -0.242759
vn 0.117397 0.962957 -0.242759
vn 0.117397 0.962957 -0.242759
vn -0.679760 0.694221 0.236609
vn -0.679760 0.694221 0.236609
vn -0.679760 0.694221 0.236609
vn -0.679760 -0.694221 0.236608
vn -0.679760 -0.694221 0.236608
vn -0.679760 -0.694221 0.236608
vn 0.117397 -0.962957 -0.242758
vn 0.117397 -0.962957 -0.242758
vn 0.117397 -0.962957 -0.242758
vn 0.727933 -0.000000 -0.685649
vn 0.727933 -0.000000 -0.685649
vn 0.727933 -0.000000 -0.685649
vn 0.679760 0.694221 -0.236608
vn 0.679760 0.694221 -0.236608
vn 0.679760 0.694221 -0.236608
vn -0.117397 0.962957 0.242758
vn -0.117397 0.962957 0.242758
vn -0.117397 0.962957 0.242758
vn -0.727933 -0.000000 0.685649
vn -0.727933 -0.000000 0.685649
vn -0.727933 -0.000000 0.685649
vn -0.117397 -0.962957 0.242758
vn -0.117397 -0.962957 0.242758
vn -0.117397 -0.962957 0.242758
vn 0.679760 -0.694221 -0.236608
vn 0.679760 -0.694221 -0.236608
vn 0.679760 -0.694221 -0.236608
vn 0.798391 0.462060 0.386099
vn 0.798391 0.462060 0.386099
vn 0.798391 0.462060 0.386099
vn 0.236608 0.694221 0.679760
vn 0.236608 0.694221 0.679760
vn 0.236608 0.694221 0.679760
vn -0.085470 -0.000000 0.996341
vn -0.085470 -0.000000 0.996341
vn -0.085470 -0.000000 0.996341
vn 0.236608 -0.694221 0.679760
vn 0.236608 -0.694221 0.679760
vn 0.236608 -0.694221 0.679760
vn 0.798391 -0.462060 0.386099
vn 0.798391 -0.462060 0.386099
vn 0.798391 -0.462060 0.386099
vn -0.539374 -0.366478 -0.758136
vn -0.539374 -0.366478 -0.758136
vn -0.539374 -0.366478 -0.758136
vn -0.336567 -0.888756 -0.311183
vn -0.336567 -0.888756 -0.311183
vn -0.336567 -0.888756 -0.311183
vn 0.356500 -0.888929 -0.287597
vn 0.356500 -0.888929 -0.287597
vn 0.356500 -0.888929 -0.287597
vn 0.589485 -0.366761 -0.719718
vn 0.589485 -0.366761 -0.719718
vn 0.589485 -0.366761 -0.719718
vn 0.033976 -0.039790 -0.998630
vn 0.033976 -0.039790 -0.998630
vn 0.033976 -0.039790 -0.998630
vn -0.917775 0.117478 -0.379326
vn -0.917775 0.117478 -0.379326
vn -0.917775 0.117478 -0.379326
vn -0.577083 -0.739211 0.347192
vn -0.577083 -0.739211 0.347192
vn -0.577083 -0.739211 0.347192
vn 0.551775 -0.739493 0.385610
vn 0.551775 -0.739493 0.385610
vn 0.551775 -0.739493 0.385610
vn 0.941499 0.117013 -0.316051
vn 0.941499 0.117013 -0.316051
vn 0.941499 0.117013 -0.316051
vn 0.026392 0.636481 -0.770841
vn 0.026392 0.636481 -0.770841
vn 0.026392 0.636481 -0.770841
vn -0.551775 0.739493 -0.385610
vn -0.551775 0.739493 -0.385610
vn -0.551775 0.739493 -0.385610
vn -0.941499 -0.117012 0.316051
vn -0.941499 -0.117012 0.316051
vn -0.941499 -0.117012 0.316051
vn -0.026392 -0.636481 0.770841
vn -0.026392 -0.636481 0.770841
vn -0.026392 -0.636480 0.770841
vn 0.917775 -0.117478 0.379325
vn 0.917775 -0.117478 0.379325
vn 0.917775 -0.117478 0.379325
vn 0.577083 0.739210 -0.347193
vn 0.577083 0.739210 -0.347193
vn 0.577083 0.739210 -0.347193
vn -0.356500 0.888930 0.287597
vn -0.356500 0.888930 0.287597
vn -0.356500 0.888930 0.287597
vn -0.589484 0.366761 0.719719
vn -0.589484 0.366760 0.719719
vn -0.589484 0.366760 0.719719
vn -0.033975 0.039790 0.998630
vn -0.033975 0.039790 0.998630
vn -0.033976 0.039790 0.998630
vn 0.539374 0.366479 0.758136
vn 0.539374 0.366479 0.758136
vn 0.539374 0.366478 0.758136
vn 0.336567 0.888756 0.311184
vn 0.336567 0.888756 0.311184
vn 0.336567 0.888756 0.311184
s off
g Hill:Hill:Hill:Hill:polySurface197
usemtl Hill:lambert12SG
f 1/1/1 3/2/2 2/3/3
f 1/1/4 4/4/5 3/2/6
f 1/1/7 5/5/8 4/4/9
f 1/1/10 6/6/11 5/5/12
f 1/1/13 2/3/14 6/6/15
f 2/3/16 3/2/17 8/7/18
f 3/8/19 4/9/20 9/10/21
f 4/9/22 5/11/23 10/12/24
f 5/5/25 6/6/26 11/13/27
f 6/6/28 2/3/29 7/14/30
f 2/3/31 8/7/32 7/14/33
f 3/8/34 9/10/35 8/7/36
f 4/9/37 10/12/38 9/10/39
f 5/11/40 11/13/41 10/12/42
f 6/6/43 7/14/44 11/13/45
f 7/14/46 8/7/47 12/15/48
f 8/7/49 9/10/50 12/15/51
f 9/10/52 10/12/53 12/15/54
f 10/12/55 11/13/56 12/15/57
f 11/13/58 7/14/59 12/15/60
f 13/16/61 15/17/62 14/18/63
f 13/16/64 16/19/65 15/17/66
f 13/16/67 17/20/68 16/19/69
f 13/16/70 18/21/71 17/20/72
f 13/16/73 14/18/74 18/21/75
f 14/18/76 15/17/77 20/22/78
f 15/23/79 16/24/80 21/25/81
f 16/24/82 17/26/83 22/27/84
f 17/20/85 18/21/86 23/28/87
f 18/21/88 14/18/89 19/29/90
f 14/18/91 20/22/92 19/29/93
f 15/23/94 21/25/95 20/22/96
f 16/24/97 22/27/98 21/25/99
f 17/26/100 23/28/101 22/27/102
f 18/21/103 19/29/104 23/28/105
f 19/29/106 20/22/107 24/30/108
f 20/22/109 21/25/110 24/30/111
f 21/25/112 22/27/113 24/30/114
f 22/27/115 23/28/116 24/30/117
f 23/28/118 19/29/119 24/30/120
f 25/31/121 27/32/122 26/33/123
f 25/31/124 28/34/125 27/32/126
f 25/31/127 29/35/128 28/34/129
f 25/31/130 30/36/131 29/35/132
f 25/31/133 26/33/134 30/36/135
f 26/33/136 27/32/137 32/37/138
f 27/38/139 28/39/140 33/40/141
f 28/39/142 29/41/143 34/42/144
f 29/35/145 30/36/146 35/43/147
f 30/36/148 26/33/149 31/44/150
f 26/33/151 32/37/152 31/44/153
f 27/38/154 33/40/155 32/37/156
f 28/39/157 34/42/158 33/40/159
f 29/41/160 35/43/161 34/42/162
f 30/36/163 31/44/164 35/43/165
f 31/44/166 32/37/167 36/45/168
f 32/37/169 33/40/170 36/45/171
f 33/40/172 34/42/173 36/45/174
f 34/42/175 35/43/176 36/45/177
f 35/43/178 31/44/179 36/45/180
f 37/46/181 39/47/182 38/48/183
f 37/46/184 40/49/185 39/47/186
f 37/46/187 41/50/188 40/49/189
f 37/46/190 42/51/191 41/50/192
f 37/46/193 38/48/194 42/51/195
f 38/48/196 39/47/197 44/52/198
f 39/53/199 40/54/200 45/55/201
f 40/54/202 41/56/203 46/57/204
f 41/50/205 42/51/206 47/58/207
f 42/51/208 38/48/209 43/59/210
f 38/48/211 44/52/212 43/59/213
f 39/53/214 45/55/215 44/52/216
f 40/54/217 46/57/218 45/55/219
f 41/56/220 47/58/221 46/57/222
f 42/51/223 43/59/224 47/58/225
f 43/59/226 44/52/227 48/60/228
f 44/52/229 45/55/230 48/60/231
f 45/55/232 46/57/233 48/60/234
f 46/57/235 47/58/236 48/60/237
f 47/58/238 43/59/239 48/60/240
f 49/61/241 51/62/242 50/63/243
f 49/61/244 52/64/245 51/62/246
f 49/61/247 53/65/248 52/64/249
f 49/61/250 54/66/251 53/65/252
f 49/61/253 50/63/254 54/66/255
f 50/63/256 51/62/257 56/67/258
f 51/68/259 52/69/260 57/70/261
f 52/69/262 53/71/263 58/72/264
f 53/65/265 54/66/266 59/73/267
f 54/66/268 50/63/269 55/74/270
f 50/63/271 56/67/272 55/74/273
f 51/68/274 57/70/275 56/67/276
f 52/69/277 58/72/278 57/70/279
f 53/71/280 59/73/281 58/72/282
f 54/66/283 55/74/284 59/73/285
f 55/74/286 56/67/287 60/75/288
f 56/67/289 57/70/290 60/75/291
f 57/70/292 58/72/293 60/75/294
f 58/72/295 59/73/296 60/75/297
f 59/73/298 55/74/299 60/75/300
f 61/76/301 63/77/302 62/78/303
f 61/76/304 64/79/305 63/77/306
f 61/76/307 65/80/308 64/79/309
f 61/76/310 66/81/311 65/80/312
f 61/76/313 62/78/314 66/81/315
f 62/78/316 63/77/317 68/82/318
f 63/83/319 64/84/320 69/85/321
f 64/84/322 65/86/323 70/87/324
f 65/80/325 66/81/326 71/88/327
f 66/81/328 62/78/329 67/89/330
f 62/78/331 68/82/332 67/89/333
f 63/83/334 69/85/335 68/82/336
f 64/84/337 70/87/338 69/85/339
f 65/86/340 71/88/341 70/87/342
f 66/81/343 67/89/344 71/88/345
f 67/89/346 68/82/347 72/90/348
f 68/82/349 69/85/350 72/90/351
f 69/85/352 70/87/353 72/90/354
f 70/87/355 71/88/356 72/90/357
f 71/88/358 67/89/359 72/90/360
