# This file uses meters as units for non-parametric coordinates.

mtllib low poly.mtl
g default
v -80.453468 -1.655586 5.350035
v -80.584312 -1.620529 5.480846
v -80.680092 -1.524757 5.576607
v -80.715164 -1.393929 5.611656
v 80.736504 -1.393929 5.635098
v 80.701454 -1.524757 5.600039
v 80.605690 -1.620529 5.504251
v 80.474876 -1.655586 5.373404
v -80.715164 0.699604 5.611656
v -80.680092 0.830433 5.576607
v -80.584312 0.926205 5.480846
v -80.453468 0.961262 5.350035
v 80.474876 0.961262 5.373404
v 80.605690 0.926205 5.504251
v 80.701454 0.830433 5.600039
v 80.736504 0.699604 5.635098
v -80.451889 0.961262 -5.465790
v -80.582695 0.926205 -5.596639
v -80.678459 0.830433 -5.692423
v -80.713509 0.699604 -5.727485
v 80.476456 0.961262 -5.442425
v 80.607300 0.926205 -5.573233
v 80.703094 0.830433 -5.668991
v 80.738152 0.699604 -5.704042
v -80.713509 -1.393929 -5.727485
v -80.678459 -1.524757 -5.692423
v -80.582695 -1.620529 -5.596639
v -80.451889 -1.655586 -5.465790
v 80.476456 -1.655586 -5.442425
v 80.607300 -1.620529 -5.573233
v 80.703094 -1.524757 -5.668991
v 80.738152 -1.393929 -5.704042
vt 0.109873 0.030989
vt 0.110660 0.031193
vt 0.110660 0.968807
vt 0.109873 0.969010
vt 0.111447 0.031750
vt 0.111447 0.968250
vt 0.112234 0.032510
vt 0.112234 0.967490
vt 0.095349 0.032510
vt 0.096136 0.031750
vt 0.096136 0.968250
vt 0.095349 0.967490
vt 0.096923 0.031193
vt 0.096923 0.968807
vt 0.097710 0.030989
vt 0.097710 0.969010
vt 0.015625 0.032510
vt 0.016412 0.031750
vt 0.016412 0.968250
vt 0.015625 0.967490
vt 0.017199 0.031193
vt 0.017199 0.968807
vt 0.017986 0.030990
vt 0.017986 0.969010
vt 0.032510 0.967490
vt 0.032510 0.032510
vt 0.030149 0.030990
vt 0.030149 0.969010
vt 0.182308 0.015625
vt 0.182308 0.950605
vt 0.119469 0.950605
vt 0.119469 0.015625
vt 0.096869 0.982014
vt 0.030990 0.982014
vt 0.030990 0.969851
vt 0.096869 0.969851
vt 0.030990 0.017986
vt 0.096869 0.017986
vt 0.096869 0.030149
vt 0.030990 0.030149
vt 0.096665 0.969064
vt 0.031193 0.969064
vt 0.096109 0.968277
vt 0.031750 0.968277
vt 0.096665 0.030936
vt 0.031193 0.030936
vt 0.096109 0.031723
vt 0.031750 0.031723
vt 0.030936 0.031193
vt 0.030936 0.968807
vt 0.031723 0.031750
vt 0.031723 0.968250
vt 0.095349 0.015625
vt 0.096109 0.016412
vt 0.031750 0.016412
vt 0.032510 0.015625
vt 0.096665 0.017199
vt 0.031193 0.017199
vt 0.096665 0.982801
vt 0.031193 0.982801
vt 0.096109 0.983588
vt 0.031750 0.983588
vt 0.095349 0.984375
vt 0.032510 0.984375
vn -0.000140 -0.258810 0.965928
vn -0.000140 -0.258810 0.965928
vn -0.000140 -0.258810 0.965928
vn -0.000140 -0.258810 0.965928
vn -0.000103 -0.707117 0.707097
vn -0.039956 -0.815883 0.576835
vn 0.039788 -0.815879 0.576852
vn -0.000103 -0.707117 0.707097
vn -0.039956 -0.815883 0.576835
vn -0.000323 -0.999989 0.004739
vn 0.000321 -0.999989 0.004739
vn 0.039788 -0.815879 0.576852
vn -0.000323 0.999989 0.004738
vn -0.039957 0.815878 0.576842
vn 0.039788 0.815875 0.576858
vn 0.000322 0.999989 0.004738
vn -0.039957 0.815878 0.576842
vn -0.000103 0.707106 0.707107
vn -0.000103 0.707106 0.707107
vn 0.039788 0.815875 0.576858
vn -0.000140 0.258813 0.965927
vn -0.000146 0.013340 0.999911
vn -0.000146 0.013341 0.999911
vn -0.000140 0.258813 0.965927
vn -0.000321 -0.999989 -0.004739
vn -0.039789 -0.815884 -0.576846
vn 0.039956 -0.815882 -0.576836
vn 0.000323 -0.999989 -0.004738
vn -0.039789 -0.815884 -0.576846
vn 0.000131 -0.425887 -0.904776
vn 0.000131 -0.425887 -0.904776
vn 0.039956 -0.815882 -0.576836
vn 0.000131 -0.425887 -0.904776
vn 0.000146 -0.013342 -0.999911
vn 0.000146 -0.013342 -0.999911
vn 0.000131 -0.425887 -0.904776
vn -0.000146 -0.013340 0.999911
vn -0.000146 -0.013341 0.999911
vn -0.000146 0.013341 0.999911
vn -0.000146 0.013340 0.999911
vn -0.000323 0.999989 0.004738
vn 0.000322 0.999989 0.004738
vn 0.000323 0.999989 -0.004739
vn -0.000321 0.999989 -0.004739
vn 0.000146 0.013342 -0.999911
vn 0.000146 0.013342 -0.999911
vn 0.000146 -0.013342 -0.999911
vn 0.000146 -0.013342 -0.999911
vn -0.000321 -0.999989 -0.004739
vn 0.000323 -0.999989 -0.004738
vn 0.000321 -0.999989 0.004739
vn -0.000323 -0.999989 0.004739
vn 0.999911 -0.013304 0.000146
vn 0.999911 -0.013304 0.000146
vn 0.999911 0.013304 0.000146
vn 0.999911 0.013304 0.000146
vn -0.999911 -0.013308 -0.000146
vn -0.999911 -0.013308 -0.000146
vn -0.999911 0.013308 -0.000146
vn -0.999911 0.013308 -0.000146
vn 0.965931 0.258801 0.000141
vn 0.999911 0.013304 0.000146
vn 0.999911 0.013304 0.000146
vn 0.965931 0.258801 0.000141
vn 0.000322 0.999989 0.004738
vn 0.039788 0.815875 0.576858
vn 0.039957 0.815875 -0.576847
vn 0.000323 0.999989 -0.004739
vn 0.039788 0.815875 0.576858
vn 0.707092 0.707122 0.000103
vn 0.707092 0.707122 0.000103
vn 0.039957 0.815875 -0.576847
vn -0.999911 0.013308 -0.000146
vn -0.905314 0.424742 -0.000131
vn -0.905314 0.424743 -0.000131
vn -0.999911 0.013308 -0.000146
vn -0.905314 0.424742 -0.000131
vn -0.039957 0.815878 0.576842
vn -0.039789 0.815876 -0.576857
vn -0.905314 0.424743 -0.000131
vn -0.039957 0.815878 0.576842
vn -0.000323 0.999989 0.004738
vn -0.000321 0.999989 -0.004739
vn -0.039789 0.815876 -0.576857
vn 0.000146 0.013342 -0.999911
vn 0.000131 0.425895 -0.904773
vn 0.000131 0.425895 -0.904773
vn 0.000146 0.013342 -0.999911
vn 0.000131 0.425895 -0.904773
vn -0.039789 0.815876 -0.576857
vn 0.039957 0.815875 -0.576847
vn 0.000131 0.425895 -0.904773
vn -0.039789 0.815876 -0.576857
vn -0.000321 0.999989 -0.004739
vn 0.000323 0.999989 -0.004739
vn 0.039957 0.815875 -0.576847
vn -0.000323 -0.999989 0.004739
vn -0.039956 -0.815883 0.576835
vn -0.039789 -0.815884 -0.576846
vn -0.000321 -0.999989 -0.004739
vn -0.039956 -0.815883 0.576835
vn -0.905314 -0.424742 -0.000131
vn -0.905314 -0.424743 -0.000131
vn -0.039789 -0.815884 -0.576846
vn -0.905314 -0.424742 -0.000131
vn -0.999911 -0.013308 -0.000146
vn -0.999911 -0.013308 -0.000146
vn -0.905314 -0.424743 -0.000131
vn 0.999911 -0.013304 0.000146
vn 0.965931 -0.258801 0.000141
vn 0.965931 -0.258801 0.000141
vn 0.999911 -0.013304 0.000146
vn 0.707092 -0.707122 0.000103
vn 0.039788 -0.815879 0.576852
vn 0.039956 -0.815882 -0.576836
vn 0.707092 -0.707122 0.000103
vn 0.039788 -0.815879 0.576852
vn 0.000321 -0.999989 0.004739
vn 0.000323 -0.999989 -0.004738
vn 0.039956 -0.815882 -0.576836
s off
g benchpCube1
usemtl initialShadingGroup
f 4/1/1 3/2/2 6/3/3 5/4/4
f 3/2/5 2/5/6 7/6/7 6/3/8
f 2/5/9 1/7/10 8/8/11 7/6/12
f 12/9/13 11/10/14 14/11/15 13/12/16
f 11/10/17 10/13/18 15/14/19 14/11/20
f 10/13/21 9/15/22 16/16/23 15/14/24
f 28/17/25 27/18/26 30/19/27 29/20/28
f 27/18/29 26/21/30 31/22/31 30/19/32
f 26/21/33 25/23/34 32/24/35 31/22/36
f 4/1/37 5/4/38 16/16/39 9/15/40
f 12/9/41 13/12/42 21/25/43 17/26/44
f 20/27/45 24/28/46 32/24/47 25/23/48
f 28/29/49 29/30/50 8/31/51 1/32/52
f 5/33/53 32/34/54 24/35/55 16/36/56
f 25/37/57 4/38/58 9/39/59 20/40/60
f 15/41/61 16/36/62 24/35/63 23/42/64
f 13/12/65 14/43/66 22/44/67 21/25/68
f 14/43/69 15/41/70 23/42/71 22/44/72
f 9/39/73 10/45/74 19/46/75 20/40/76
f 10/45/77 11/47/78 18/48/79 19/46/80
f 11/47/81 12/9/82 17/26/83 18/48/84
f 20/27/85 19/49/86 23/50/87 24/28/88
f 19/49/89 18/51/90 22/52/91 23/50/92
f 18/51/93 17/26/94 21/25/95 22/52/96
f 1/53/97 2/54/98 27/55/99 28/56/100
f 2/54/101 3/57/102 26/58/103 27/55/104
f 3/57/105 4/38/106 25/37/107 26/58/108
f 5/33/109 6/59/110 31/60/111 32/34/112
f 6/59/113 7/61/114 30/62/115 31/60/116
f 7/61/117 8/63/118 29/64/119 30/62/120
