# This file uses meters as units for non-parametric coordinates.

mtllib rock 2 low poly.mtl
g default
v -0.272832 -0.158103 -0.916243
v 0.478302 0.397743 -0.746119
v -0.446283 1.253547 0.209139
v 0.455715 0.402497 0.481347
v 0.504642 -0.880141 0.426169
v -0.492471 -0.452181 0.866319
v 0.349340 -0.262249 -0.919562
v -0.690293 -0.724003 -0.172096
v 0.229411 1.251450 -0.201795
v 0.322530 1.222591 0.128153
v 0.081196 -0.847956 0.855469
v -0.145766 1.022968 0.619212
v -0.282985 0.804474 -0.649724
v 0.799007 -0.610549 -0.291756
v 0.061516 1.038443 0.548902
v 0.004860 -0.358480 1.035308
v -0.032081 -0.891948 -0.414030
v -0.154127 -0.870502 0.789821
v -0.830452 0.206087 0.111087
v 0.781563 -0.086398 0.385548
v -0.794330 0.304285 -0.428933
v 0.878612 0.002606 -0.182281
v -0.933531 -0.373679 -0.012072
v 0.870642 0.143808 0.010362
v -0.356132 1.391941 -0.080948
v 0.688971 -0.719982 0.335813
v 0.347714 -0.882776 -0.249802
v 0.194912 1.352055 -0.106787
v 0.372176 -0.898145 -0.437506
v -0.427384 -0.244914 0.969475
v 0.545801 -0.638668 -0.645009
v -0.275655 0.177826 1.007086
v -0.418049 1.078738 -0.385968
v -0.408834 0.075568 0.962241
v -0.401732 -0.729284 -0.512610
v -0.035550 -0.199946 1.091756
v 0.506533 -0.877007 -0.137368
v 0.432654 1.027887 0.052494
v -0.944391 -0.273164 -0.036179
v 0.142657 0.984448 0.497909
v -0.691712 0.759636 0.137281
v 0.606001 -0.745366 -0.547427
v 0.221494 0.459784 0.737672
v -0.605304 0.484177 0.521077
v 0.308284 0.792055 -0.648582
v 0.375561 0.233023 0.726674
v -0.728894 0.589997 0.330598
v -0.459053 -0.875258 0.059291
v 0.344116 0.138696 0.832793
vt 0.718785 0.480478
vt 0.853159 0.463106
vt 0.560476 0.584436
vt 0.674627 0.730712
vt 0.681577 0.789453
vt 0.235839 0.009766
vt 0.556932 0.235653
vt 0.405866 0.362333
vt 0.473166 0.188539
vt 0.292244 0.474036
vt 0.193759 0.287049
vt 0.284627 0.220659
vt 0.235449 0.175517
vt 0.122736 0.225677
vt 0.263597 0.046942
vt 0.337909 0.828958
vt 0.054789 0.126900
vt 0.884732 0.350393
vt 0.440731 0.611545
vt 0.489273 0.405589
vt 0.609048 0.371756
vt 0.411584 0.284463
vt 0.321776 0.192613
vt 0.383814 0.089673
vt 0.506288 0.041206
vt 0.634458 0.611545
vt 0.641841 0.165343
vt 0.718149 0.293121
vt 0.300250 0.422157
vt 0.359050 0.470200
vt 0.464801 0.566495
vt 0.354543 0.490620
vt 0.682634 0.612923
vt 0.169886 0.439271
vt 0.370701 0.895897
vt 0.859143 0.495030
vt 0.134037 0.303265
vt 0.490757 0.477075
vt 0.463656 0.104441
vt 0.186593 0.424829
vt 0.953288 0.436113
vt 0.885151 0.400941
vt 0.716384 0.210237
vt 0.690449 0.398924
vt 0.620219 0.485907
vt 0.706824 0.307653
vt 0.453523 0.081292
vt 0.143360 0.248167
vt 0.671816 0.474210
vt 0.396315 0.009766
vt 0.722094 0.697905
vt 0.606096 0.083484
vt 0.773908 0.178914
vt 0.553994 0.903639
vt 0.990234 0.283132
vt 0.942393 0.266123
vt 0.038682 0.165578
vt 0.970314 0.399017
vt 0.288514 0.623233
vt 0.127309 0.448368
vt 0.009766 0.269308
vt 0.414149 0.621134
vt 0.270235 0.580395
vt 0.102567 0.011529
vn -0.768744 0.252203 0.587730
vn -0.781032 0.188802 0.595267
vn -0.512313 0.715431 0.475072
vn -0.004148 -0.999760 0.021530
vn 0.501109 -0.864745 -0.033262
vn 0.216357 -0.965108 0.147500
vn -0.362571 -0.044828 -0.930877
vn 0.495408 0.499171 -0.710914
vn 0.373459 -0.057919 -0.925837
vn 0.532659 0.693284 0.485420
vn 0.774032 0.371729 0.512535
vn 0.918269 0.379790 0.111988
vn 0.867321 -0.009659 0.497655
vn 0.588685 0.039374 0.807403
vn 0.819979 -0.288976 0.494093
vn -0.314463 -0.888921 0.333066
vn 0.341838 -0.269718 0.900221
vn -0.761752 -0.346096 0.547678
vn -0.339559 -0.936069 0.092054
vn -0.257790 0.401688 -0.878744
vn -0.820543 0.117281 -0.559423
vn 0.733928 0.252779 -0.630438
vn 0.960041 0.024645 -0.278773
vn 0.945941 -0.282732 -0.158929
vn 0.023458 -0.740849 -0.671262
vn -0.087536 -0.848940 -0.521189
vn -0.524515 -0.535744 -0.661712
vn -0.943580 -0.306410 0.125575
vn 0.872697 0.449118 -0.191556
vn 0.559232 0.628649 -0.540426
vn -0.484296 0.841596 -0.239109
vn 0.225433 0.967425 0.115195
vn -0.357886 0.519826 0.775692
vn 0.227768 0.698462 0.678434
vn 0.519019 -0.387060 0.762105
vn -0.040549 0.355750 0.933701
vn 0.354526 0.379237 0.854688
vn -0.493543 0.607515 -0.622368
vn 0.456190 -0.348453 -0.818823
vn 0.707781 0.383003 0.593595
vn 0.151580 0.074952 0.985599
vn -0.741079 -0.019731 0.671128
vn -0.743996 -0.666540 -0.046849
vn -0.957673 0.143556 0.249508
vn -0.920050 0.384234 -0.076632
vn -0.898472 -0.103752 -0.426596
vn 0.615599 -0.678997 -0.400002
vn 0.739743 0.394820 0.544883
vn -0.859349 0.265703 0.436944
s 1
g rock_2_low_poly:Group991
usemtl initialShadingGroup
f 44/1/1 34/2/2 3/3/3
f 27/4/4 37/5/5 5/54/6
f 1/7/7 45/8/8 7/9/9
f 10/10/10 4/11/11 24/12/12
f 20/13/13 49/14/14 26/15/15
f 18/56/16 16/58/17 6/18/18
f 6/18/18 48/53/19 18/56/16
f 13/20/20 1/7/7 21/21/21
f 45/8/8 2/22/22 7/9/9
f 22/23/23 26/15/15 14/24/24
f 29/25/25 17/52/26 1/7/7
f 35/27/27 23/28/28 1/7/7
f 38/29/29 24/12/12 9/30/30
f 1/7/7 13/20/20 45/8/8
f 9/30/30 25/31/31 28/32/32
f 3/62/3 12/59/33 15/63/34
f 26/15/15 49/14/14 11/64/35
f 5/54/6 18/16/16 27/4/4
f 32/61/36 43/37/37 15/34/34
f 11/64/35 49/14/14 16/17/17
f 9/30/30 33/38/38 25/31/31
f 21/21/21 25/31/31 33/38/38
f 22/23/23 31/39/39 7/9/9
f 1/7/7 7/9/9 31/39/39
f 3/62/3 15/63/34 10/10/10
f 40/40/40 10/10/10 15/34/34
f 36/57/41 49/14/14 32/61/36
f 6/18/18 36/41/41 30/42/42
f 27/4/4 17/26/26 29/51/25
f 8/43/43 23/28/28 35/27/27
f 11/35/35 18/16/16 5/54/6
f 16/58/17 18/56/16 11/55/35
f 6/18/18 30/42/42 19/44/44
f 8/43/43 6/18/18 23/28/28
f 26/15/15 22/23/23 20/13/13
f 4/11/11 20/13/13 24/12/12
f 21/21/21 41/45/45 25/31/31
f 19/44/44 23/28/28 6/18/18
f 2/22/22 22/23/23 7/9/9
f 2/22/22 45/8/8 24/12/12
f 21/21/21 39/46/46 19/44/44
f 1/7/7 39/46/46 21/21/21
f 20/13/13 22/23/23 24/12/12
f 24/12/12 22/23/23 2/22/22
f 25/31/31 3/62/3 28/32/32
f 3/3/3 25/31/31 41/45/45
f 37/50/5 26/15/15 5/6/6
f 11/64/35 5/6/6 26/15/15
f 8/43/43 48/53/19 6/18/18
f 8/43/43 35/27/27 48/53/19
f 28/32/32 3/62/3 10/10/10
f 38/29/29 9/30/30 28/32/32
f 14/24/24 26/15/15 37/50/5
f 22/23/23 14/24/24 31/39/39
f 34/2/2 12/33/33 3/3/3
f 15/34/34 12/60/33 32/61/36
f 1/7/7 31/39/39 29/25/25
f 37/50/5 42/47/47 14/24/24
f 12/33/33 34/2/2 32/36/36
f 32/36/36 30/42/42 36/41/41
f 13/20/20 33/38/38 9/30/30
f 33/38/38 13/20/20 21/21/21
f 30/42/42 34/2/2 19/44/44
f 32/36/36 34/2/2 30/42/42
f 35/27/27 1/7/7 17/52/26
f 17/52/26 48/53/19 35/27/27
f 16/17/17 49/14/14 36/57/41
f 36/41/41 6/18/18 16/58/17
f 37/50/5 29/25/25 42/47/47
f 27/4/4 29/51/25 37/5/5
f 10/10/10 24/12/12 38/29/29
f 28/32/32 10/10/10 38/29/29
f 39/46/46 23/28/28 19/44/44
f 23/28/28 39/46/46 1/7/7
f 40/40/40 4/11/11 10/10/10
f 4/11/11 46/48/48 20/13/13
f 3/3/3 41/45/45 47/49/49
f 19/44/44 41/45/45 21/21/21
f 29/25/25 31/39/39 42/47/47
f 14/24/24 42/47/47 31/39/39
f 43/37/37 40/40/40 15/34/34
f 4/11/11 40/40/40 46/48/48
f 34/2/2 44/1/1 19/44/44
f 41/45/45 19/44/44 47/49/49
f 45/8/8 13/20/20 9/30/30
f 45/8/8 9/30/30 24/12/12
f 49/14/14 20/13/13 46/48/48
f 43/37/37 46/48/48 40/40/40
f 47/49/49 44/1/1 3/3/3
f 47/49/49 19/44/44 44/1/1
f 17/26/26 27/4/4 48/19/19
f 27/4/4 18/16/16 48/19/19
f 43/37/37 32/61/36 49/14/14
f 43/37/37 49/14/14 46/48/48
